HIERARCHY
ROOT root
{
	OFFSET	0	13.1	24.9
	CHANNELS 6  Xposition Yposition Zposition Xrotation Yrotation Zrotation
	JOINT spine_1
	{
		OFFSET	0	9.99999	0
		CHANNELS 3  Xrotation Yrotation Zrotation
		JOINT spine_2
		{
			OFFSET	0	112	-10
			CHANNELS 3  Xrotation Yrotation Zrotation
			JOINT spine_3
			{
				OFFSET	0	206.5	19.3
				CHANNELS 3  Xrotation Yrotation Zrotation
				JOINT spine_4
				{
					OFFSET	0	110.4	14.6
					CHANNELS 3  Xrotation Yrotation Zrotation
					JOINT neck_1
					{
						OFFSET	0	71.8	-50.3
						CHANNELS 3  Xrotation Yrotation Zrotation
						JOINT neck_2
						{
							OFFSET	0	86.2	-25.8
							CHANNELS 3  Xrotation Yrotation Zrotation
							JOINT head_ee
							{
								OFFSET	0	179.8	-8.7
								CHANNELS 3  Xrotation Yrotation Zrotation
								End Site
								{
									OFFSET	1	0	0
								}
							}
						}
					}
					JOINT left_clavicle
					{
						OFFSET	-43.2	22.4	-70.8
						CHANNELS 3  Xrotation Yrotation Zrotation
						JOINT left_shoulder
						{
							OFFSET	-93.9	-5.79999	48.7
							CHANNELS 3  Xrotation Yrotation Zrotation
							JOINT left_elbow
							{
								OFFSET	-291.4	-30.8	15.2
								CHANNELS 3  Xrotation Yrotation Zrotation
								JOINT left_lowarm_twist
								{
									OFFSET	-110.7	-3.89999	13.6
									CHANNELS 3  Xrotation Yrotation Zrotation
									JOINT left_hand
									{
										OFFSET	-110.7	-3.89999	13.6
										CHANNELS 3  Xrotation Yrotation Zrotation
										JOINT left_ee
										{
											OFFSET	-80.8	-5.10001	12.1
											CHANNELS 3  Xrotation Yrotation Zrotation
											End Site
											{
												OFFSET	1	0	0
											}
										}
									}
								}
							}
						}
					}
					JOINT right_clavicle
					{
						OFFSET	43.2	22.4	-70.8
						CHANNELS 3  Xrotation Yrotation Zrotation
						JOINT right_shoulder
						{
							OFFSET	93.9	-5.79999	48.7
							CHANNELS 3  Xrotation Yrotation Zrotation
							JOINT right_elbow
							{
								OFFSET	291.4	-30.8	15.2
								CHANNELS 3  Xrotation Yrotation Zrotation
								JOINT right_lowarm_twist
								{
									OFFSET	110.7	-3.89999	13.6
									CHANNELS 3  Xrotation Yrotation Zrotation
									JOINT right_hand
									{
										OFFSET	110.7	-3.89999	13.6
										CHANNELS 3  Xrotation Yrotation Zrotation
										JOINT right_ee
										{
											OFFSET	80.8	-5.10001	12.1
											CHANNELS 3  Xrotation Yrotation Zrotation
											End Site
											{
												OFFSET	1	0	0
											}
										}
									}
								}
							}
						}
					}
				}
			}
		}
	}
	JOINT left_hip
	{
		OFFSET	-82.8	-127.5	0.300001
		CHANNELS 3  Xrotation Yrotation Zrotation
		JOINT left_knee
		{
			OFFSET	-28.2	-396.7	2.2
			CHANNELS 3  Xrotation Yrotation Zrotation
			JOINT left_ankle
			{
				OFFSET	-11.7	-411.3	35.4
				CHANNELS 3  Xrotation Yrotation Zrotation
				JOINT left_toes
				{
					OFFSET	0	-60	-88.6
					CHANNELS 3  Xrotation Yrotation Zrotation
					JOINT left_foot_ee
					{
						OFFSET	-22.5	-16.5	-42.2
						CHANNELS 3  Xrotation Yrotation Zrotation
						End Site
						{
							OFFSET	1	0	0
						}
					}
				}
			}
		}
	}
	JOINT right_hip
	{
		OFFSET	82.8	-127.5	0.300001
		CHANNELS 3  Xrotation Yrotation Zrotation
		JOINT right_knee
		{
			OFFSET	28.2	-396.7	2.2
			CHANNELS 3  Xrotation Yrotation Zrotation
			JOINT right_ankle
			{
				OFFSET	11.7	-411.3	35.4
				CHANNELS 3  Xrotation Yrotation Zrotation
				JOINT right_toes
				{
					OFFSET	0	-60	-88.6
					CHANNELS 3  Xrotation Yrotation Zrotation
					JOINT right_foot_ee
					{
						OFFSET	22.5	-16.5	-42.2
						CHANNELS 3  Xrotation Yrotation Zrotation
						End Site
						{
							OFFSET	1	0	0
						}
					}
				}
			}
		}
	}
}
MOTION
Frames: 15
Frame Time: 0.02
3512.91 768.968 -731.777 -5.61203 52.9142 6.69131 0.468036 -0.643091 -2.23558 0.470678 -0.499571 -2.27194 0.491869 -0.0310298 -2.32598 0.48454 -0.397888 -2.29193 -12.6335 16.7019 6.93948 -12.9839 27.4281 11.6345 -0.0 0.0 -0.0 8.31587 19.5108 14.8494 -30.5916 -20.929 61.5986 0.43762 -12.2318 0.046891 -11.4819 -0.543018 1.36144 0.821763 9.64538 9.31432 -0.0 0.0 -0.0 11.6259 14.1288 -23.3737 -24.439 28.9289 -37.8564 1.24775 31.7188 -0.354488 -27.8638 1.76237 -3.06004 -3.4468 -7.29634 19.7775 0.0 0.0 0.0 10.9165 4.73969 -4.37854 -18.4728 0.310688 2.80552 18.1481 4.64898 -2.50118 25.9351 -0.0 -0.0 -0.0 0.0 -0.0 -4.06315 -13.6165 1.97689 2.57386 0.114516 0.378308 1.14794 -18.8009 0.170338 16.3334 -0.0 -0.0 0.0 0.0 0.0 
3501.75 770.241 -728.74 -5.63987 52.6945 6.51938 0.520092 -0.640777 -2.25111 0.522774 -0.496273 -2.2873 0.543937 -0.0268266 -2.34033 0.536513 -0.396002 -2.30676 -13.4547 16.582 8.3647 -13.7656 26.4911 13.1185 -0.0 0.0 -0.0 8.61065 18.2509 15.4701 -31.9863 -21.6628 61.6912 0.471478 -13.1464 0.0543285 -10.8057 -0.503546 1.28446 1.16738 7.01587 10.5849 -0.0 0.0 -0.0 11.3208 13.6907 -22.6959 -23.1906 28.1021 -38.8606 1.294 32.6587 -0.379126 -29.0169 1.86586 -3.16561 -3.96557 -7.58431 23.2587 0.0 0.0 0.0 9.69592 8.85552 -3.69873 -15.9924 0.321832 2.42514 17.0327 2.96463 -2.36328 26.5892 -0.0 -0.0 -0.0 0.0 -0.0 -2.52387 -12.9456 2.49733 1.01597 0.0431674 0.149926 1.51979 -25.3135 0.231657 16.5066 -0.0 -0.0 0.0 0.0 0.0 
3492.91 772.297 -724.232 -5.26379 52.4409 5.92694 0.409317 -0.463432 -2.17258 0.411885 -0.324281 -2.19765 0.425533 0.128371 -2.21772 0.418739 -0.223401 -2.21018 -14.3888 16.6169 9.68857 -14.6734 25.9723 14.5779 -0.0 0.0 -0.0 9.25362 14.85 16.9547 -31.7438 -21.9873 61.9397 0.436034 -12.1888 0.0465556 -9.37215 -0.422894 1.11976 1.5312 5.67381 12.5035 -0.0 0.0 -0.0 11.3906 12.9301 -22.8723 -22.5758 27.0977 -39.3323 1.32593 33.2963 -0.396505 -30.4533 1.99772 -3.29419 -4.62341 -7.60368 28.0287 0.0 0.0 0.0 7.85057 10.9157 -2.55587 -13.7766 0.317857 2.08523 16.9067 3.14628 -2.34653 26.4735 -0.0 -0.0 -0.0 0.0 -0.0 -2.95504 -13.6482 2.51905 1.45943 0.0628435 0.215128 2.08576 -26.4753 0.31955 16.5693 -0.0 -0.0 0.0 0.0 0.0 
3482.04 770.74 -720.251 -3.65383 51.7134 4.09973 0.297505 -0.441209 -2.21364 0.300182 -0.299491 -2.23722 0.31319 0.165112 -2.25112 0.306169 -0.19239 -2.24895 -15.5464 16.1077 10.9514 -15.7624 24.5313 15.8265 -0.0 0.0 -0.0 9.43705 14.277 17.3425 -31.6714 -23.0029 61.4267 0.454488 -12.6882 0.0505305 -8.47019 -0.374276 1.01514 1.83877 4.05556 13.9682 -0.0 0.0 -0.0 11.5473 12.3755 -23.2368 -22.1186 26.6275 -39.3784 1.30989 32.9772 -0.387739 -31.6356 2.10867 -3.39755 -5.02969 -7.59904 31.1023 0.0 0.0 0.0 5.95003 14.4253 -2.14511 -13.1987 0.314659 1.99662 13.5073 2.38944 -1.90348 26.6164 -0.0 -0.0 -0.0 0.0 -0.0 -1.67428 -12.6637 4.44823 0.229294 0.00950989 0.0339018 -1.04183 -28.5902 -0.162782 16.3787 -0.0 -0.0 0.0 0.0 0.0 
3470.94 771.643 -715.095 -3.56015 51.4013 4.24737 0.084254 -0.349574 -2.06177 0.0865927 -0.217699 -2.07983 0.0957186 0.220869 -2.07949 0.0897008 -0.110246 -2.08828 -15.8934 16.2724 12.0029 -16.0473 24.3316 16.9214 -0.0 0.0 -0.0 9.80744 12.8895 18.1681 -31.4311 -23.8132 60.9204 0.433438 -12.1183 0.046009 -7.76795 -0.337571 0.933167 2.02881 3.1806 14.9319 -0.0 0.0 -0.0 11.4789 12.0561 -23.0878 -22.4787 25.9809 -39.1262 1.35885 33.9441 -0.414735 -31.8633 2.13028 -3.41719 -5.27138 -7.3511 33.1514 0.0 0.0 0.0 4.46874 15.9914 -1.59745 -10.9754 0.294029 1.65613 14.4599 2.41963 -2.02983 26.6565 -0.0 -0.0 -0.0 0.0 -0.0 -0.155417 -12.9163 5.39644 -0.335707 -0.0136775 -0.049702 -1.10265 -30.4905 -0.174525 16.5913 -0.0 -0.0 0.0 0.0 0.0 
3465.81 768.436 -714.9 -3.73825 50.0558 4.63451 0.0905233 -0.166088 -2.31572 0.0935065 -0.0184366 -2.32159 0.0955354 0.466367 -2.27437 0.0883314 0.101422 -2.31945 -14.7925 17.104 12.7507 -14.8559 25.1878 17.6231 -0.0 0.0 -0.0 10.0677 11.9259 18.758 -30.5359 -24.7077 60.5462 0.406638 -11.3893 0.0405495 -7.37328 -0.317384 0.886904 2.21967 2.58698 16.0179 -0.0 0.0 -0.0 11.5512 12.6333 -23.2409 -23.1412 25.285 -38.8746 1.35454 33.8599 -0.412333 -32.5616 2.19703 -3.47688 -5.29272 -6.08524 34.1868 0.0 0.0 0.0 3.04633 16.9607 -1.39725 -9.12446 0.266786 1.37343 17.3071 1.95355 -2.40208 27.5121 -0.0 -0.0 -0.0 0.0 -0.0 1.07149 -14.423 5.63604 -1.56124 -0.0611281 -0.23179 4.40078 -29.8742 0.685006 18.3435 -0.0 -0.0 0.0 0.0 0.0 
3455.94 767.099 -712.468 -3.11446 50.8022 4.50506 -0.0337017 -0.344693 -2.39507 -0.0305306 -0.191635 -2.41213 -0.0207807 0.320619 -2.39841 -0.028803 -0.0620741 -2.41893 -14.6849 17.0392 13.3303 -14.6722 24.6834 18.0957 -0.0 0.0 -0.0 10.0877 12.1539 18.7662 -30.1354 -26.9733 58.9106 0.436672 -12.2061 0.0466903 -7.46847 -0.322224 0.898074 2.44988 1.54853 17.2145 -0.0 0.0 -0.0 11.6102 13.2021 -23.3623 -23.2894 24.2634 -39.2305 1.32728 33.323 -0.397246 -31.7945 2.12374 -3.41126 -5.50396 -4.74283 36.8358 0.0 0.0 0.0 0.800992 17.585 -0.775769 -6.85017 0.220829 1.02748 19.6043 0.544331 -2.69942 27.4989 -0.0 -0.0 -0.0 0.0 -0.0 2.11567 -15.8104 5.9337 -5.04895 -0.174705 -0.75492 9.39606 -29.6159 1.44015 19.6241 -0.0 -0.0 0.0 0.0 0.0 
3438.86 765.309 -712.077 -2.78567 52.0031 4.38986 -0.0379197 -0.6045 -2.45595 -0.0346751 -0.447046 -2.48941 -0.0131913 0.0866443 -2.52772 -0.0219707 -0.313521 -2.50971 -14.5774 17.2272 13.5479 -14.5482 24.8824 18.3312 -0.0 0.0 -0.0 9.98391 13.1476 18.4522 -29.0817 -29.7891 57.7165 0.457868 -12.7795 0.0512755 -7.28837 -0.313083 0.876933 2.41754 1.42234 16.9395 -0.0 0.0 -0.0 11.4216 13.3171 -22.9332 -24.1033 22.9705 -39.8474 1.34656 33.7033 -0.407892 -30.6046 2.0118 -3.30755 -5.61894 -4.25201 38.1459 0.0 0.0 0.0 -1.17783 17.8997 -0.0607615 -5.32913 0.182442 0.797221 20.9766 -1.6621 -2.88406 27.2531 -0.0 -0.0 -0.0 0.0 -0.0 2.94356 -14.341 6.68734 -8.08755 -0.247537 -1.21548 14.6118 -28.8564 2.19085 21.6775 -0.0 -0.0 0.0 0.0 0.0 
3415.49 762.581 -728.652 1.06928 53.0572 1.0574 -0.560596 -0.581248 -2.32103 -0.557703 -0.432419 -2.35329 -0.537637 0.0942097 -2.39081 -0.545501 -0.284448 -2.37571 -13.3766 17.7033 12.6236 -13.3845 25.9927 17.3595 -0.0 0.0 -0.0 10.2732 14.4337 18.7924 -31.0157 -32.4167 53.4821 0.455985 -12.7287 0.0508597 -7.63505 -0.330738 0.917604 2.26092 -0.133914 15.2355 -0.0 0.0 -0.0 11.0035 9.61388 -22.0462 -25.691 22.1573 -41.1789 1.4758 36.167 -0.481918 -31.9698 2.14041 -3.42634 -5.79196 -3.36003 40.2722 0.0 0.0 0.0 -6.28584 17.8215 0.215801 -5.11359 0.176508 0.764676 24.0919 -4.93344 -3.29261 28.4312 -0.0 -0.0 -0.0 0.0 -0.0 11.5266 -11.9904 8.29755 -25.4275 -0.191876 -3.86545 22.8831 -28.9205 3.32397 26.5341 -0.0 -0.0 0.0 0.0 0.0 
3403.19 762.781 -729.13 1.20261 53.8855 0.897898 -0.512477 -0.663539 -2.36296 -0.509516 -0.511878 -2.40036 -0.485644 0.0247124 -2.45418 -0.493865 -0.363073 -2.42731 -12.8098 18.0501 12.7397 -12.7832 26.4099 17.4367 -0.0 0.0 -0.0 10.275 15.3443 18.662 -31.5015 -34.4925 51.0391 0.4796 -13.3647 0.0561907 -7.54611 -0.326185 0.90718 2.12584 -0.880369 14.0011 -0.0 0.0 -0.0 10.9589 9.90384 -21.9462 -26.886 21.0725 -42.3616 1.31035 32.9863 -0.387988 -33.4253 2.28061 -3.5496 -5.96227 -2.9939 42.0559 0.0 0.0 0.0 -7.5714 17.746 0.988273 -4.20658 0.150196 0.627966 25.2014 -7.22653 -3.45413 29.6772 -0.0 -0.0 -0.0 0.0 -0.0 15.3768 -10.0399 9.23491 -33.2522 0.0941806 -5.0313 21.5428 -28.5063 3.13808 28.4035 -0.0 -0.0 0.0 0.0 0.0 
3391.01 763.475 -735.406 1.72434 54.1597 0.931775 -0.497456 -0.594292 -2.45279 -0.494215 -0.43706 -2.48561 -0.472766 0.115854 -2.52106 -0.481523 -0.283626 -2.50774 -12.1635 18.4842 11.8365 -12.1974 27.6178 16.5848 -0.0 0.0 -0.0 10.5038 16.0228 18.9555 -32.6172 -36.2379 48.1391 0.489436 -13.6287 0.0584863 -7.55889 -0.326838 0.908678 2.0173 -1.56072 12.9774 -0.0 0.0 -0.0 10.502 7.96043 -20.9398 -27.1075 20.7646 -43.6591 1.31149 33.0091 -0.388608 -33.1912 2.25786 -3.53002 -6.09567 -3.67794 42.7646 0.0 0.0 0.0 -8.76274 18.0619 0.622906 -3.69739 0.134476 0.551402 24.662 -8.54154 -3.41066 29.7566 -0.0 -0.0 -0.0 0.0 -0.0 16.7766 -6.93867 9.25176 -40.5928 0.504913 -6.08106 21.5409 -27.9197 3.12543 28.708 -0.0 -0.0 0.0 0.0 0.0 
3381.29 762.722 -739.361 2.30669 54.5788 0.90864 -0.627693 -0.60036 -2.41728 -0.624552 -0.445373 -2.45055 -0.602946 0.105739 -2.48843 -0.611471 -0.288466 -2.47392 -11.9731 18.667 11.8201 -12.0029 27.9204 16.577 -0.0 0.0 -0.0 10.6292 16.0938 19.1619 -32.4158 -37.1705 45.796 0.524137 -14.5552 0.0669356 -7.88813 -0.343781 0.947226 1.89887 -1.9344 12.0111 -0.0 0.0 -0.0 10.5033 7.91845 -20.9424 -28.1179 20.0684 -44.3654 1.23465 31.449 -0.347626 -34.4525 2.38143 -3.63444 -6.05194 -2.47529 43.2562 0.0 0.0 0.0 -9.62448 17.8521 0.011184 -3.38228 0.124407 0.50409 28.3396 -10.3869 -3.87034 30.5984 -0.0 -0.0 -0.0 0.0 -0.0 19.7796 -6.44999 9.58816 -45.0083 0.815739 -6.6847 25.0368 -26.9816 3.55541 31.3623 -0.0 -0.0 0.0 0.0 0.0 
3370.05 763.043 -738.451 3.28532 55.6069 -0.0297916 -0.802426 -0.505119 -2.36668 -0.799379 -0.353542 -2.39401 -0.782101 0.190471 -2.41245 -0.790171 -0.192807 -2.41227 -11.9766 17.5742 10.2351 -12.0786 26.8459 14.7853 -0.0 0.0 -0.0 10.4703 15.6698 18.9531 -31.5554 -38.5153 44.1337 0.691951 -18.9203 0.1153 -7.62074 -0.330004 0.915927 1.62249 -2.32115 9.96241 -0.0 0.0 -0.0 10.7097 7.82713 -21.3934 -28.2989 18.7756 -45.1574 1.0761 28.0599 -0.268907 -34.2345 2.35991 -3.61659 -6.09532 -2.45178 43.676 0.0 0.0 0.0 -10.6599 17.9339 0.15045 -3.3544 0.123504 0.499907 26.4852 -12.4584 -3.70077 30.2459 -0.0 -0.0 -0.0 0.0 -0.0 21.8799 -3.59406 8.95132 -40.8779 0.523558 -6.12072 22.9343 -26.9623 3.28726 31.6367 -0.0 -0.0 0.0 0.0 0.0 
3362.07 765.656 -734.707 2.99271 55.5645 0.105841 -0.859675 -0.350666 -2.31148 -0.856725 -0.20291 -2.3291 -0.846226 0.325492 -2.31516 -0.853703 -0.0441258 -2.3375 -12.1201 17.5333 10.0725 -12.2455 26.9114 14.6587 -0.0 0.0 -0.0 10.4542 15.8376 18.8987 -30.1633 -39.562 43.4441 0.737512 -20.0694 0.130505 -7.90091 -0.344443 0.94872 1.40942 -2.61679 8.39106 -0.0 0.0 -0.0 10.3354 7.86138 -20.576 -28.6259 17.9818 -45.8967 1.02403 26.897 -0.244882 -34.2871 2.36509 -3.6209 -6.09486 -1.96515 44.0311 0.0 0.0 0.0 -11.2125 18.2144 1.11402 -3.36028 0.123695 0.500789 28.3047 -14.2053 -3.95368 30.9724 -0.0 -0.0 -0.0 0.0 -0.0 22.9856 -3.85815 9.45267 -38.2657 0.360138 -5.75396 22.8182 -25.5403 3.24396 31.8691 -0.0 -0.0 0.0 0.0 0.0 
3348.15 766.947 -734.433 3.26182 55.5712 -0.295067 -1.17025 -0.403275 -2.30038 -1.16735 -0.256119 -2.32137 -1.15442 0.284342 -2.31808 -1.16191 -0.0852209 -2.33389 -12.5069 17.0602 9.8709 -12.6508 26.2363 14.4204 -0.0 0.0 -0.0 10.6614 15.6926 19.2834 -29.2004 -40.2849 42.1411 0.818882 -22.0798 0.159769 -7.92481 -0.345682 0.951516 1.17583 -2.88226 6.69797 -0.0 0.0 -0.0 10.0192 7.92213 -19.8887 -29.0921 17.1975 -46.2361 0.94988 25.1986 -0.212316 -34.2401 2.36046 -3.61704 -6.09235 -1.78103 44.143 0.0 0.0 0.0 -11.4457 18.0549 1.46817 -4.23092 0.150931 0.631629 27.8735 -15.2589 -3.93165 30.9735 -0.0 -0.0 -0.0 0.0 -0.0 25.1439 -2.87968 9.48971 -34.4275 0.15082 -5.2027 22.0709 -24.7602 3.13395 31.8858 -0.0 -0.0 0.0 0.0 0.0 
